<?xml version="1.0" standalone="no"?>
<!DOCTYPE svg PUBLIC "-//W3C//DTD SVG 20010904//EN"
 "http://www.w3.org/TR/2001/REC-SVG-20010904/DTD/svg10.dtd">
<svg version="1.0" xmlns="http://www.w3.org/2000/svg"
 width="470.000000pt" height="470.000000pt" viewBox="0 0 470.000000 470.000000"
 preserveAspectRatio="xMidYMid meet">
<metadata>
Created by potrace 1.11, written by Peter Selinger 2001-2013
</metadata>
<g transform="translate(0.000000,470.000000) scale(0.100000,-0.100000)"
fill="#000000" stroke="none">
<path d="M170 2355 l0 -2185 2185 0 2185 0 0 2185 0 2185 -2185 0 -2185 0 0
-2185z m490 1930 l0 -235 245 0 245 0 0 235 0 235 240 0 240 0 0 -235 0 -235
-240 0 -240 0 0 -245 0 -245 240 0 240 0 0 -240 0 -240 240 0 240 0 0 -240 0
-240 245 0 245 0 0 240 0 240 240 0 240 0 0 -240 0 -240 -240 0 -240 0 0 -245
0 -245 240 0 240 0 0 -240 0 -240 240 0 240 0 0 -240 0 -240 245 0 245 0 0
240 0 240 235 0 235 0 0 -240 0 -240 -235 0 -235 0 0 -245 0 -245 235 0 235 0
0 -235 0 -235 -235 0 -235 0 0 235 0 235 -245 0 -245 0 0 -235 0 -235 -240 0
-240 0 0 235 0 235 240 0 240 0 0 245 0 245 -240 0 -240 0 0 240 0 240 -240 0
-240 0 0 240 0 240 -245 0 -245 0 0 -240 0 -240 -240 0 -240 0 0 240 0 240
240 0 240 0 0 245 0 245 -240 0 -240 0 0 240 0 240 -240 0 -240 0 0 240 0 240
-245 0 -245 0 0 -240 0 -240 -235 0 -235 0 0 240 0 240 235 0 235 0 0 245 0
245 -235 0 -235 0 0 235 0 235 235 0 235 0 0 -235z m2900 0 l0 -235 245 0 245
0 0 -245 0 -245 235 0 235 0 0 -240 0 -240 -235 0 -235 0 0 240 0 240 -245 0
-245 0 0 245 0 245 -240 0 -240 0 0 235 0 235 240 0 240 0 0 -235z m-2900
-2895 l0 -240 245 0 245 0 0 -245 0 -245 240 0 240 0 0 -235 0 -235 -240 0
-240 0 0 235 0 235 -245 0 -245 0 0 245 0 245 -235 0 -235 0 0 240 0 240 235
0 235 0 0 -240z"/>
</g>
</svg>
